<svg xmlns="http://www.w3.org/2000/svg" viewBox="0 0 96 96" fill="none">
  
  
  <circle cx="48" cy="48" r="44" stroke="#0E0F11" stroke-width="2" fill="#FAF7F2"></circle>
  
  <circle cx="48" cy="48" r="36" stroke="#0E0F11" stroke-width="1"></circle>
  
  <g stroke="#0E0F11" stroke-width="1.5" stroke-linecap="square">
    <line x1="48" y1="6" x2="48" y2="12"></line>
    <line x1="48" y1="84" x2="48" y2="90"></line>
    <line x1="6" y1="48" x2="12" y2="48"></line>
    <line x1="84" y1="48" x2="90" y2="48"></line>
  </g>
  
  <g stroke="#0E0F11" stroke-width="1" stroke-linecap="square" opacity="0.55">
    <line x1="48" y1="14" x2="48" y2="17" transform="rotate(30 48 48)"></line>
    <line x1="48" y1="14" x2="48" y2="17" transform="rotate(60 48 48)"></line>
    <line x1="48" y1="14" x2="48" y2="17" transform="rotate(120 48 48)"></line>
    <line x1="48" y1="14" x2="48" y2="17" transform="rotate(150 48 48)"></line>
    <line x1="48" y1="14" x2="48" y2="17" transform="rotate(210 48 48)"></line>
    <line x1="48" y1="14" x2="48" y2="17" transform="rotate(240 48 48)"></line>
    <line x1="48" y1="14" x2="48" y2="17" transform="rotate(300 48 48)"></line>
    <line x1="48" y1="14" x2="48" y2="17" transform="rotate(330 48 48)"></line>
  </g>
  
  <g transform="rotate(45 48 48)">
    <rect x="30" y="30" width="36" height="36" fill="#F27F0D"></rect>
    
    <path d="M40 41 L48 50 L56 41 M48 50 L48 60" stroke="#FAF7F2" stroke-width="3.5" stroke-linecap="square" fill="none"></path>
  </g>
  
  <g stroke="#0E0F11" stroke-width="1">
    <circle cx="48" cy="48" r="1.5" fill="#0E0F11"></circle>
  </g>
</svg>