<svg xmlns="http://www.w3.org/2000/svg" viewBox="0 0 400 470" preserveAspectRatio="xMidYMid slice">
  
  <defs>
    <linearGradient id="bg" x1="0" y1="0" x2="1" y2="1">
      <stop offset="0%" stop-color="#FFE2BD"></stop>
      <stop offset="55%" stop-color="#FFEFD8"></stop>
      <stop offset="100%" stop-color="#FFF8EC"></stop>
    </linearGradient>
    <pattern id="dots" width="16" height="16" patternUnits="userSpaceOnUse">
      <circle cx="8" cy="8" r="0.9" fill="rgba(242,127,13,0.18)"></circle>
    </pattern>
    <linearGradient id="orange" x1="0" y1="0" x2="0" y2="1">
      <stop offset="0%" stop-color="#FFB35E"></stop>
      <stop offset="100%" stop-color="#F27F0D"></stop>
    </linearGradient>
  </defs>

  <rect width="100%" height="100%" fill="url(#bg)"></rect>
  <rect width="100%" height="100%" fill="url(#dots)" opacity="0.6"></rect>
  
  
  <ellipse cx="200" cy="290" rx="160" ry="180" fill="rgba(242,127,13,0.10)"></ellipse>
  
  <g fill="rgba(14,15,17,0.18)">
    
    <path d="M 200 110 C 160 110, 142 138, 142 165 L 142 178 L 258 178 L 258 165 C 258 138, 240 110, 200 110 Z"></path>
    
    <rect x="132" y="172" width="136" height="8" rx="3"></rect>
    
    <rect x="172" y="180" width="56" height="42" fill="rgba(255,239,216,0.6)"></rect>
    
    <path d="M 110 290 C 110 248, 150 220, 200 220 C 250 220, 290 248, 290 290 L 290 470 L 110 470 Z"></path>
  </g>
  
  <rect x="125" y="305" width="150" height="14" fill="#F27F0D" opacity="0.85"></rect>
  
  <g>
    <rect x="155" y="360" width="90" height="60" rx="6" fill="rgba(14,15,17,0.85)"></rect>
    <rect x="163" y="370" width="50" height="3" fill="#FFB35E"></rect>
    <rect x="163" y="378" width="74" height="2" fill="rgba(255,255,255,0.4)"></rect>
    <rect x="163" y="384" width="60" height="2" fill="rgba(255,255,255,0.4)"></rect>
    <rect x="163" y="390" width="40" height="2" fill="rgba(255,255,255,0.4)"></rect>
    <circle cx="225" cy="408" r="3" fill="#F27F0D"></circle>
  </g>
  <text x="40" y="445" font-family="&#39;JetBrains Mono&#39;, ui-monospace, monospace" font-size="9" font-weight="600" fill="rgba(14,15,17,0.45)" letter-spacing="2">OPERATOR · OP-04823</text>

</svg>