<svg xmlns="http://www.w3.org/2000/svg" viewBox="0 0 500 380" preserveAspectRatio="xMidYMid slice">
  
  <defs>
    <linearGradient id="bg" x1="0" y1="0" x2="1" y2="1">
      <stop offset="0%" stop-color="#FFE2BD"></stop>
      <stop offset="55%" stop-color="#FFEFD8"></stop>
      <stop offset="100%" stop-color="#FFF8EC"></stop>
    </linearGradient>
    <pattern id="dots" width="16" height="16" patternUnits="userSpaceOnUse">
      <circle cx="8" cy="8" r="0.9" fill="rgba(242,127,13,0.18)"></circle>
    </pattern>
    <linearGradient id="orange" x1="0" y1="0" x2="0" y2="1">
      <stop offset="0%" stop-color="#FFB35E"></stop>
      <stop offset="100%" stop-color="#F27F0D"></stop>
    </linearGradient>
  </defs>

  <rect width="100%" height="100%" fill="url(#bg)"></rect>
  <rect width="100%" height="100%" fill="url(#dots)" opacity="0.6"></rect>
  
  
  <line x1="0" y1="265" x2="500" y2="265" stroke="rgba(14,15,17,0.12)" stroke-width="1"></line>
  
  <g fill="rgba(14,15,17,0.14)">
    <rect x="50" y="180" width="80" height="85"></rect>
    <rect x="138" y="205" width="55" height="60"></rect>
    <rect x="205" y="155" width="110" height="110"></rect>
    <rect x="325" y="195" width="70" height="70"></rect>
    <rect x="405" y="225" width="50" height="40"></rect>
  </g>
  
  <g stroke="rgba(14,15,17,0.45)" stroke-width="1.4" fill="none">
    <line x1="260" y1="155" x2="260" y2="115"></line>
    <line x1="90" y1="180" x2="90" y2="158"></line>
    <line x1="360" y1="195" x2="360" y2="170"></line>
  </g>
  <circle cx="260" cy="111" r="3.5" fill="#F27F0D"></circle>
  <circle cx="90" cy="155" r="2.6" fill="#F27F0D"></circle>
  <circle cx="360" cy="167" r="2.6" fill="#F27F0D"></circle>
  
  <circle cx="260" cy="111" r="22" fill="rgba(242,127,13,0.18)"></circle>
  
  <g>
    <circle cx="420" cy="325" r="3" fill="#F27F0D"></circle>
    <circle cx="435" cy="325" r="3" fill="rgba(14,15,17,0.22)"></circle>
    <circle cx="450" cy="325" r="3" fill="rgba(14,15,17,0.22)"></circle>
  </g>
  <text x="50" y="340" font-family="&#39;JetBrains Mono&#39;, ui-monospace, monospace" font-size="10" font-weight="600" fill="rgba(14,15,17,0.45)" letter-spacing="2">FACILITY · LIVE</text>

</svg>