<svg xmlns="http://www.w3.org/2000/svg" viewBox="0 0 700 500" preserveAspectRatio="xMidYMid slice">
  
  <defs>
    <linearGradient id="bg" x1="0" y1="0" x2="1" y2="1">
      <stop offset="0%" stop-color="#FFE2BD"></stop>
      <stop offset="55%" stop-color="#FFEFD8"></stop>
      <stop offset="100%" stop-color="#FFF8EC"></stop>
    </linearGradient>
    <pattern id="dots" width="16" height="16" patternUnits="userSpaceOnUse">
      <circle cx="8" cy="8" r="0.9" fill="rgba(242,127,13,0.18)"></circle>
    </pattern>
    <linearGradient id="orange" x1="0" y1="0" x2="0" y2="1">
      <stop offset="0%" stop-color="#FFB35E"></stop>
      <stop offset="100%" stop-color="#F27F0D"></stop>
    </linearGradient>
  </defs>

  <rect width="100%" height="100%" fill="url(#bg)"></rect>
  <rect width="100%" height="100%" fill="url(#dots)" opacity="0.6"></rect>
  
  
  <line x1="0" y1="350" x2="700" y2="350" stroke="rgba(14,15,17,0.12)" stroke-width="1"></line>
  
  <g fill="rgba(14,15,17,0.10)">
    <rect x="80" y="280" width="60" height="70"></rect>
    <rect x="148" y="295" width="40" height="55"></rect>
    <rect x="540" y="285" width="80" height="65"></rect>
  </g>
  
  <g fill="rgba(14,15,17,0.18)">
    
    <path d="M 380 350 L 410 220 L 410 350 Z"></path>
    <path d="M 440 350 L 410 220 L 410 350 Z"></path>
    
    <rect x="380" y="270" width="60" height="3"></rect>
    <rect x="380" y="310" width="60" height="3"></rect>
    
    <rect x="370" y="180" width="80" height="50" rx="3"></rect>
    
    <path d="M 360 180 L 410 158 L 460 180 Z"></path>
  </g>
  
  <circle cx="410" cy="205" r="5" fill="#F27F0D"></circle>
  <circle cx="410" cy="205" r="22" fill="rgba(242,127,13,0.20)"></circle>
  
  <g stroke="rgba(14,15,17,0.30)" stroke-width="1.2">
    <line x1="0" y1="370" x2="700" y2="370"></line>
    <line x1="0" y1="380" x2="700" y2="380"></line>
  </g>
  <g fill="rgba(14,15,17,0.35)">
    <rect x="60" y="345" width="3" height="40"></rect>
    <rect x="170" y="345" width="3" height="40"></rect>
    <rect x="280" y="345" width="3" height="40"></rect>
    <rect x="500" y="345" width="3" height="40"></rect>
    <rect x="610" y="345" width="3" height="40"></rect>
  </g>
  <text x="40" y="460" font-family="&#39;JetBrains Mono&#39;, ui-monospace, monospace" font-size="11" font-weight="600" fill="rgba(14,15,17,0.50)" letter-spacing="2.5">PERIMETER · SECURED</text>

</svg>