<svg xmlns="http://www.w3.org/2000/svg" viewBox="0 0 600 500" preserveAspectRatio="xMidYMid slice">
  
  <defs>
    <linearGradient id="bg" x1="0" y1="0" x2="1" y2="1">
      <stop offset="0%" stop-color="#FFE2BD"></stop>
      <stop offset="55%" stop-color="#FFEFD8"></stop>
      <stop offset="100%" stop-color="#FFF8EC"></stop>
    </linearGradient>
    <pattern id="dots" width="16" height="16" patternUnits="userSpaceOnUse">
      <circle cx="8" cy="8" r="0.9" fill="rgba(242,127,13,0.18)"></circle>
    </pattern>
    <linearGradient id="orange" x1="0" y1="0" x2="0" y2="1">
      <stop offset="0%" stop-color="#FFB35E"></stop>
      <stop offset="100%" stop-color="#F27F0D"></stop>
    </linearGradient>
  </defs>

  <rect width="100%" height="100%" fill="url(#bg)"></rect>
  <rect width="100%" height="100%" fill="url(#dots)" opacity="0.6"></rect>
  
  <ellipse cx="300" cy="280" rx="240" ry="200" fill="rgba(242,127,13,0.08)"></ellipse>
  
  <g fill="rgba(14,15,17,0.25)">
    <rect x="285" y="80" width="30" height="50" rx="3"></rect>
    <rect x="270" y="125" width="60" height="8" rx="2"></rect>
  </g>
  
  <g>
    <rect x="170" y="135" width="260" height="320" rx="14" fill="rgba(14,15,17,0.85)"></rect>
    <rect x="178" y="143" width="244" height="304" rx="8" fill="#FFFFFF"></rect>
    
    <g transform="translate(178, 143)">
      
      <rect x="0" y="0" width="244" height="34" fill="#FFEFD8"></rect>
      <circle cx="18" cy="17" r="5" fill="#F27F0D"></circle>
      <rect x="32" y="13" width="60" height="4" rx="2" fill="rgba(14,15,17,0.55)"></rect>
      <rect x="32" y="20" width="40" height="3" rx="1.5" fill="rgba(14,15,17,0.30)"></rect>
      <rect x="200" y="11" width="30" height="12" rx="6" fill="#F27F0D"></rect>
      
      <rect x="14" y="50" width="216" height="46" rx="6" fill="#F7F8FA"></rect>
      <rect x="24" y="60" width="100" height="5" rx="2" fill="rgba(14,15,17,0.50)"></rect>
      <rect x="24" y="71" width="140" height="4" rx="2" fill="rgba(14,15,17,0.25)"></rect>
      <rect x="24" y="80" width="60" height="4" rx="2" fill="#F27F0D"></rect>
      
      <rect x="14" y="108" width="216" height="46" rx="6" fill="#F7F8FA"></rect>
      <rect x="24" y="118" width="120" height="5" rx="2" fill="rgba(14,15,17,0.50)"></rect>
      <rect x="24" y="129" width="130" height="4" rx="2" fill="rgba(14,15,17,0.25)"></rect>
      <rect x="24" y="138" width="50" height="4" rx="2" fill="#1F8A5B"></rect>
      
      <rect x="14" y="166" width="216" height="46" rx="6" fill="#F7F8FA"></rect>
      <rect x="24" y="176" width="90" height="5" rx="2" fill="rgba(14,15,17,0.50)"></rect>
      <rect x="24" y="187" width="150" height="4" rx="2" fill="rgba(14,15,17,0.25)"></rect>
      <rect x="24" y="196" width="70" height="4" rx="2" fill="#F27F0D"></rect>
      
      <rect x="14" y="230" width="216" height="40" rx="999" fill="url(#orange)"></rect>
      <rect x="92" y="246" width="60" height="6" rx="3" fill="#fff"></rect>
    </g>
    
    <rect x="280" y="438" width="40" height="3" rx="1.5" fill="rgba(255,255,255,0.4)"></rect>
  </g>
  <text x="40" y="475" font-family="&#39;JetBrains Mono&#39;, ui-monospace, monospace" font-size="11" font-weight="600" fill="rgba(14,15,17,0.40)" letter-spacing="2.5">DAY 01 · KIOSK</text>

</svg>