<svg xmlns="http://www.w3.org/2000/svg" viewBox="0 0 600 500" preserveAspectRatio="xMidYMid slice">
  
  <defs>
    <linearGradient id="bg" x1="0" y1="0" x2="1" y2="1">
      <stop offset="0%" stop-color="#FFE2BD"></stop>
      <stop offset="55%" stop-color="#FFEFD8"></stop>
      <stop offset="100%" stop-color="#FFF8EC"></stop>
    </linearGradient>
    <pattern id="dots" width="16" height="16" patternUnits="userSpaceOnUse">
      <circle cx="8" cy="8" r="0.9" fill="rgba(242,127,13,0.18)"></circle>
    </pattern>
    <linearGradient id="orange" x1="0" y1="0" x2="0" y2="1">
      <stop offset="0%" stop-color="#FFB35E"></stop>
      <stop offset="100%" stop-color="#F27F0D"></stop>
    </linearGradient>
  </defs>

  <rect width="100%" height="100%" fill="url(#bg)"></rect>
  <rect width="100%" height="100%" fill="url(#dots)" opacity="0.6"></rect>
  
  
  <rect width="100%" height="100%" fill="url(#orange)" opacity="0.35"></rect>
  
  <g>
    <g transform="translate(60, 80)">
      <rect width="480" height="56" rx="8" fill="rgba(255,255,255,0.7)"></rect>
      <circle cx="26" cy="28" r="6" fill="#1F8A5B"></circle>
      <rect x="50" y="18" width="200" height="6" rx="3" fill="rgba(14,15,17,0.55)"></rect>
      <rect x="50" y="32" width="140" height="4" rx="2" fill="rgba(14,15,17,0.30)"></rect>
      <rect x="380" y="22" width="80" height="14" rx="4" fill="rgba(242,127,13,0.20)"></rect>
    </g>
    <g transform="translate(60, 152)">
      <rect width="480" height="56" rx="8" fill="rgba(255,255,255,0.7)"></rect>
      <circle cx="26" cy="28" r="6" fill="#1F8A5B"></circle>
      <rect x="50" y="18" width="180" height="6" rx="3" fill="rgba(14,15,17,0.55)"></rect>
      <rect x="50" y="32" width="160" height="4" rx="2" fill="rgba(14,15,17,0.30)"></rect>
      <rect x="380" y="22" width="80" height="14" rx="4" fill="rgba(242,127,13,0.20)"></rect>
    </g>
    <g transform="translate(60, 224)">
      <rect width="480" height="56" rx="8" fill="rgba(255,255,255,0.7)"></rect>
      <circle cx="26" cy="28" r="6" fill="#1F8A5B"></circle>
      <rect x="50" y="18" width="220" height="6" rx="3" fill="rgba(14,15,17,0.55)"></rect>
      <rect x="50" y="32" width="130" height="4" rx="2" fill="rgba(14,15,17,0.30)"></rect>
      <rect x="380" y="22" width="80" height="14" rx="4" fill="rgba(242,127,13,0.20)"></rect>
    </g>
    <g transform="translate(60, 296)">
      <rect width="480" height="56" rx="8" fill="rgba(255,255,255,0.5)"></rect>
      <circle cx="26" cy="28" r="6" fill="#F27F0D"></circle>
      <rect x="50" y="18" width="160" height="6" rx="3" fill="rgba(14,15,17,0.55)"></rect>
      <rect x="50" y="32" width="190" height="4" rx="2" fill="rgba(14,15,17,0.30)"></rect>
      <rect x="380" y="22" width="80" height="14" rx="4" fill="rgba(14,15,17,0.20)"></rect>
    </g>
  </g>
  
  <g stroke="rgba(14,15,17,0.20)" stroke-width="1" fill="none">
    <line x1="86" y1="136" x2="86" y2="152"></line>
    <line x1="86" y1="208" x2="86" y2="224"></line>
    <line x1="86" y1="280" x2="86" y2="296"></line>
  </g>

</svg>